<svg xmlns="http://www.w3.org/2000/svg" xmlns:xlink="http://www.w3.org/1999/xlink" width="1000" zoomAndPan="magnify" viewBox="0 0 750 749.999995" height="1000" preserveAspectRatio="xMidYMid meet" version="1.0"><defs><clipPath id="2d36bdda80"><path d="M 75 75 L 675 75 L 675 675 L 75 675 Z M 75 75 " clip-rule="nonzero"/></clipPath></defs><g clip-path="url(#2d36bdda80)"><path fill="#ffffff" d="M 230.578125 261.007812 C 232.613281 264.800781 234.726562 268.507812 236.867188 272.265625 C 239.128906 276.226562 241.40625 280.21875 242.976562 283.113281 L 243.207031 283.570312 C 244.734375 286.390625 245.585938 287.871094 246.273438 289.070312 L 246.304688 289.070312 C 249.132812 293.996094 250.480469 296.347656 250.535156 300.292969 C 250.585938 303.894531 249.476562 306.050781 247.378906 310.144531 C 246.511719 311.832031 245.367188 314.070312 243.660156 317.917969 C 241.125 323.648438 239.980469 327.515625 239.171875 330.253906 C 236.671875 338.746094 235.902344 341.335938 226.621094 343.863281 C 223.859375 344.617188 220.777344 345.414062 217.25 346.324219 C 209.066406 348.4375 198.515625 351.164062 192.421875 353.027344 L 192.53125 397.125 C 197.460938 398.667969 205.085938 400.546875 212.054688 402.265625 C 218.816406 403.929688 225.011719 405.460938 228.558594 406.691406 C 235.949219 409.257812 237.351562 413.742188 239.789062 421.523438 C 240.671875 424.335938 241.777344 427.859375 243.660156 432.113281 C 245.140625 435.457031 246.421875 437.964844 247.394531 439.871094 L 247.683594 440.5 C 249.644531 444.351562 250.667969 446.542969 250.566406 450.066406 C 250.453125 454.019531 249.015625 456.417969 246.015625 461.449219 C 245.191406 462.824219 244.164062 464.554688 242.496094 467.511719 L 242.109375 468.136719 C 241.054688 469.980469 239.992188 471.765625 238.808594 473.742188 C 235.976562 478.480469 232.425781 484.421875 230.261719 488.628906 L 261.222656 519.664062 C 264.65625 517.867188 269.089844 515.21875 272.390625 513.253906 C 273.460938 512.65625 274.5 511.964844 275.574219 511.363281 C 280.050781 508.75 283.089844 506.867188 285.480469 505.390625 C 291.636719 501.589844 294.601562 499.75 298.675781 499.351562 L 298.960938 499.328125 C 303.25 498.96875 305.765625 500.265625 310.507812 502.714844 C 312.792969 503.898438 315.863281 505.484375 320.28125 507.363281 L 320.578125 507.496094 C 321.652344 507.917969 323.289062 508.421875 325.03125 508.953125 L 325.0625 508.960938 C 330.386719 510.585938 336.484375 512.457031 339.941406 515.875 C 340.558594 516.484375 341.058594 517.167969 341.449219 517.890625 C 344.097656 522.425781 346.359375 531.816406 348.671875 541.429688 C 350.09375 547.355469 351.542969 553.382812 352.800781 557.511719 L 397.074219 557.40625 C 398.351562 553.261719 399.804688 547.175781 401.226562 541.207031 L 401.199219 541.199219 C 403.710938 530.652344 406.160156 520.414062 409.292969 516.574219 L 409.886719 515.921875 C 413.417969 512.421875 419.417969 510.574219 424.828125 508.910156 C 426.953125 508.257812 428.957031 507.636719 430.140625 507.121094 C 434.035156 505.414062 436.675781 504.066406 438.726562 503.015625 C 443.980469 500.332031 446.71875 498.933594 451.394531 499.425781 C 455.738281 499.878906 459.054688 501.929688 465.953125 506.195312 C 467.941406 507.421875 470.347656 508.910156 474.609375 511.445312 L 477.308594 513.0625 C 480.632812 515.074219 485.132812 517.796875 488.601562 519.625 L 519.574219 488.691406 C 517.59375 484.871094 514.480469 479.722656 511.761719 475.210938 C 509.964844 472.242188 508.324219 469.527344 506.898438 466.921875 C 505.703125 464.730469 504.433594 462.546875 503.414062 460.792969 C 500.578125 455.910156 499.238281 453.609375 499.1875 449.730469 C 499.136719 446.171875 500.21875 444.101562 502.265625 440.195312 C 503.183594 438.445312 504.433594 436.070312 506.183594 432.113281 C 508.703125 426.421875 509.84375 422.566406 510.648438 419.824219 C 513.160156 411.308594 513.9375 408.675781 523.308594 406.109375 C 525.578125 405.492188 529.117188 404.582031 533.164062 403.542969 C 541.21875 401.480469 551.429688 398.859375 557.417969 397.019531 L 557.3125 352.949219 C 552.636719 351.515625 545.503906 349.707031 539.558594 348.199219 C 535.773438 347.242188 532.414062 346.390625 530.335938 345.796875 C 529.203125 345.472656 528.289062 345.242188 527.355469 345.015625 C 525.375 344.523438 523.285156 344.007812 521.285156 343.316406 C 514.085938 340.871094 513.582031 339.230469 511.816406 333.261719 L 511.390625 331.808594 C 507.574219 319.457031 504.367188 313.679688 502.441406 310.207031 C 500.75 307.160156 499.691406 305.253906 499.351562 302.246094 C 498.792969 297.285156 500.515625 294.3125 505.082031 286.445312 C 509.929688 278.046875 514.464844 269.480469 519.105469 260.964844 L 488.667969 230.46875 C 483.632812 233.140625 475.703125 237.773438 470.667969 240.707031 C 467.78125 242.273438 464.824219 244.097656 461.988281 245.761719 C 456.5 249.015625 453.929688 250.539062 449.746094 250.613281 C 445.988281 250.675781 443.6875 249.5 439.371094 247.296875 C 437.609375 246.394531 435.324219 245.230469 431.972656 243.730469 C 426.242188 241.160156 422.339844 240.019531 419.59375 239.214844 C 411.164062 236.753906 408.601562 235.996094 406.03125 226.621094 C 405.332031 224.058594 404.582031 221.160156 403.699219 217.742188 C 401.589844 209.589844 398.785156 198.726562 396.953125 192.664062 L 352.765625 192.664062 C 351.496094 196.792969 350.046875 202.847656 348.625 208.78125 C 346.078125 219.402344 343.605469 229.726562 340.511719 233.488281 L 339.949219 234.105469 C 336.738281 237.296875 329.667969 239.6875 323.527344 241.761719 C 320.851562 242.667969 318.382812 243.503906 317.246094 244.011719 C 313.976562 245.472656 311.238281 246.871094 309.242188 247.882812 C 306.53125 249.265625 304.90625 250.089844 302.730469 250.542969 L 302.316406 250.617188 C 297.941406 251.441406 296.078125 250.363281 291.652344 247.796875 C 290.5 247.128906 289.246094 246.453125 288.136719 245.746094 C 281.472656 241.875 268.148438 234.089844 261.199219 230.453125 Z M 322.601562 377.464844 C 319.324219 374.1875 319.324219 368.867188 322.601562 365.589844 C 325.878906 362.3125 331.199219 362.3125 334.476562 365.589844 L 361.832031 392.941406 L 415.363281 339.40625 C 418.640625 336.128906 423.960938 336.128906 427.238281 339.40625 C 430.515625 342.683594 430.515625 348.003906 427.238281 351.28125 L 367.769531 410.753906 C 364.488281 414.03125 359.167969 414.03125 355.894531 410.753906 Z M 156.144531 386.144531 C 159.425781 389.421875 159.425781 394.742188 156.144531 398.019531 C 152.871094 401.296875 147.550781 401.296875 144.273438 398.019531 L 124.660156 378.40625 C 125.320312 435.304688 144.957031 487.613281 177.519531 529.285156 C 211.386719 572.621094 259.242188 604.503906 314.285156 618.148438 C 318.777344 619.25 321.523438 623.792969 320.417969 628.28125 C 319.316406 632.773438 314.773438 635.519531 310.28125 634.417969 C 251.546875 619.859375 200.480469 585.835938 164.339844 539.589844 C 129.707031 495.277344 108.765625 439.765625 107.878906 379.433594 L 89.289062 398.019531 C 86.011719 401.296875 80.691406 401.296875 77.414062 398.019531 C 74.136719 394.742188 74.136719 389.421875 77.414062 386.144531 L 110.839844 352.71875 C 114.117188 349.441406 119.441406 349.441406 122.71875 352.71875 Z M 660.554688 336.078125 C 663.832031 332.800781 669.152344 332.800781 672.429688 336.078125 C 675.707031 339.355469 675.707031 344.675781 672.429688 347.953125 L 639 381.382812 C 638.210938 382.175781 637.304688 382.773438 636.332031 383.179688 L 636.222656 383.226562 L 636.144531 383.257812 L 635.757812 383.398438 L 635.648438 383.433594 L 635.558594 383.460938 C 634.957031 383.648438 634.339844 383.765625 633.710938 383.816406 L 633.667969 383.820312 L 633.28125 383.835938 L 632.847656 383.835938 L 632.460938 383.820312 L 632.417969 383.816406 C 631.789062 383.765625 631.167969 383.648438 630.566406 383.460938 L 630.476562 383.433594 L 630.371094 383.398438 L 629.984375 383.257812 L 629.902344 383.226562 L 629.792969 383.179688 C 628.824219 382.769531 627.914062 382.171875 627.125 381.382812 L 593.695312 347.953125 C 590.417969 344.675781 590.417969 339.355469 593.695312 336.078125 C 596.972656 332.800781 602.292969 332.800781 605.570312 336.078125 L 623.769531 354.277344 C 619.308594 301.398438 598.277344 252.609375 565.4375 213.789062 C 528.386719 169.996094 476.308594 138.859375 416.058594 128.820312 C 411.496094 128.058594 408.410156 123.742188 409.171875 119.175781 C 409.933594 114.613281 414.25 111.53125 418.8125 112.289062 C 483.113281 123.003906 538.691406 156.226562 578.230469 202.964844 C 613.914062 245.144531 636.535156 298.324219 640.742188 355.890625 Z M 382.554688 593.757812 C 385.832031 590.480469 391.15625 590.480469 394.433594 593.757812 C 397.707031 597.035156 397.707031 602.355469 394.433594 605.632812 L 374.605469 625.460938 L 374.652344 625.460938 C 436.183594 625.460938 492.507812 603.25 536.042969 566.417969 C 580.277344 529 611.335938 476.488281 621.273438 416.847656 C 622.035156 412.285156 626.351562 409.199219 630.917969 409.960938 C 635.480469 410.722656 638.5625 415.039062 637.804688 419.601562 C 627.199219 483.257812 594.058594 539.289062 546.867188 579.210938 C 500.714844 618.257812 441.132812 641.90625 376.0625 642.246094 L 394.433594 660.613281 C 397.707031 663.894531 397.707031 669.210938 394.433594 672.488281 C 391.15625 675.769531 385.832031 675.769531 382.554688 672.488281 L 349.128906 639.0625 C 345.851562 635.785156 345.851562 630.464844 349.128906 627.1875 Z M 335.285156 89.542969 C 332.007812 86.265625 332.007812 80.945312 335.285156 77.667969 C 338.566406 74.390625 343.882812 74.390625 347.164062 77.667969 L 380.589844 111.09375 L 380.730469 111.238281 L 380.742188 111.25 L 380.867188 111.386719 L 380.886719 111.40625 L 381 111.535156 L 381.027344 111.570312 L 381.132812 111.691406 L 381.257812 111.847656 L 381.296875 111.898438 L 381.382812 112.007812 L 381.425781 112.066406 L 381.5 112.171875 L 381.550781 112.238281 L 381.613281 112.335938 L 381.664062 112.410156 L 381.726562 112.507812 L 381.777344 112.585938 L 381.832031 112.679688 L 381.886719 112.765625 L 381.9375 112.855469 L 381.988281 112.941406 L 382.035156 113.03125 L 382.089844 113.128906 L 382.128906 113.210938 L 382.179688 113.308594 L 382.222656 113.390625 L 382.269531 113.496094 L 382.308594 113.578125 L 382.351562 113.683594 L 382.507812 114.0625 L 382.542969 114.144531 L 382.578125 114.253906 C 382.664062 114.507812 382.742188 114.769531 382.804688 115.035156 L 382.835938 115.136719 L 382.855469 115.230469 L 382.894531 115.425781 L 382.917969 115.546875 L 382.929688 115.625 L 382.960938 115.828125 L 382.980469 115.964844 L 382.988281 116.027344 L 383.007812 116.171875 L 383.011719 116.226562 L 383.039062 116.601562 L 383.039062 116.628906 L 383.050781 117.03125 L 383.039062 117.4375 L 383.039062 117.464844 L 383.011719 117.835938 L 383.007812 117.890625 L 382.988281 118.039062 L 382.980469 118.101562 L 382.960938 118.238281 L 382.929688 118.4375 L 382.917969 118.515625 L 382.894531 118.636719 L 382.855469 118.835938 L 382.835938 118.929688 L 382.804688 119.03125 C 382.742188 119.296875 382.667969 119.558594 382.578125 119.8125 L 382.542969 119.921875 L 382.507812 120.003906 L 382.351562 120.382812 L 382.308594 120.488281 L 382.269531 120.566406 L 382.222656 120.671875 L 382.179688 120.753906 L 382.128906 120.855469 L 382.089844 120.9375 L 382.035156 121.035156 L 381.988281 121.121094 L 381.886719 121.300781 L 381.832031 121.386719 L 381.777344 121.476562 L 381.726562 121.558594 L 381.664062 121.652344 L 381.613281 121.726562 L 381.550781 121.828125 L 381.5 121.890625 L 381.425781 122 L 381.296875 122.164062 L 381.257812 122.214844 L 381.132812 122.371094 L 381.027344 122.496094 L 381 122.527344 L 380.886719 122.65625 L 380.867188 122.679688 L 380.742188 122.816406 L 380.589844 122.96875 L 347.164062 156.398438 C 343.882812 159.675781 338.566406 159.675781 335.285156 156.398438 C 332.007812 153.121094 332.007812 147.800781 335.285156 144.523438 L 353.496094 126.3125 C 303.164062 130.523438 257.089844 149.617188 219.699219 179.179688 C 176.238281 213.539062 144.457031 262.054688 131.308594 317.777344 C 130.261719 322.285156 125.75 325.089844 121.238281 324.042969 C 116.730469 322.992188 113.925781 318.480469 114.972656 313.972656 C 128.996094 254.523438 162.925781 202.746094 209.335938 166.054688 C 250.019531 133.890625 300.273438 113.324219 355.089844 109.34375 Z M 374.925781 281.21875 C 400.847656 281.21875 424.3125 291.722656 441.296875 308.707031 C 458.28125 325.695312 468.789062 349.160156 468.789062 375.078125 C 468.789062 401 458.28125 424.464844 441.296875 441.449219 C 424.3125 458.433594 400.847656 468.9375 374.925781 468.9375 C 349.007812 468.9375 325.542969 458.433594 308.554688 441.449219 C 291.574219 424.464844 281.066406 401 281.066406 375.078125 C 281.066406 349.160156 291.574219 325.695312 308.554688 308.710938 C 325.542969 291.722656 349.007812 281.21875 374.925781 281.21875 Z M 429.421875 320.582031 C 443.367188 334.53125 451.992188 353.796875 451.992188 375.078125 C 451.992188 396.363281 443.367188 415.628906 429.421875 429.574219 C 415.476562 443.519531 396.210938 452.144531 374.925781 452.144531 C 353.648438 452.144531 334.378906 443.519531 320.429688 429.574219 C 306.488281 415.628906 297.859375 396.363281 297.859375 375.078125 C 297.859375 353.796875 306.488281 334.53125 320.429688 320.585938 C 334.375 306.640625 353.644531 298.011719 374.925781 298.011719 C 396.210938 298.011719 415.476562 306.636719 429.421875 320.582031 Z M 222.304688 280.53125 C 219.246094 275.167969 216.25 269.914062 213.066406 263.597656 C 211.214844 260.386719 211.667969 256.210938 214.417969 253.476562 L 253.449219 214.527344 C 255.511719 212.484375 258.582031 211.566406 261.582031 212.398438 C 266.78125 213.847656 287.523438 225.964844 296.589844 231.265625 L 300.050781 233.296875 C 300.261719 233.421875 300.070312 233.59375 299.785156 233.753906 L 299.664062 233.96875 L 301.632812 232.929688 C 303.488281 231.984375 306.035156 230.6875 310.421875 228.722656 C 312.488281 227.796875 315.203125 226.878906 318.152344 225.882812 C 322.078125 224.554688 326.527344 223.050781 327.808594 222.433594 C 328.625 220.460938 330.46875 212.785156 332.355469 204.910156 C 334.585938 195.601562 336.875 186.046875 339.328125 181.050781 C 340.589844 178.007812 343.589844 175.871094 347.085938 175.871094 L 402.753906 175.871094 L 402.753906 175.898438 C 405.691406 175.902344 408.542969 177.449219 410.070312 180.199219 C 412.34375 184.289062 416.820312 201.609375 419.902344 213.539062 L 422.167969 222.226562 C 422.257812 222.554688 422.726562 222.695312 424.253906 223.144531 C 427.492188 224.089844 432.101562 225.4375 438.796875 228.441406 C 442.21875 229.972656 444.902344 231.34375 446.980469 232.40625 C 448.859375 233.367188 449.101562 233.890625 449.480469 233.886719 C 449.816406 233.882812 450.515625 233.074219 453.460938 231.328125 C 456.34375 229.636719 459.386719 227.976562 462.207031 226.210938 C 469.371094 222.03125 482.003906 214.648438 487.292969 212.695312 C 490.332031 211.445312 493.964844 212.058594 496.425781 214.535156 L 535.382812 253.566406 C 537.925781 256.128906 538.605469 260.148438 536.792969 263.476562 C 531.09375 273.9375 525.535156 284.527344 519.578125 294.84375 C 517.03125 299.234375 515.960938 299.929688 516.011719 300.40625 C 516.046875 300.707031 516.398438 300.867188 517.070312 302.078125 C 519.304688 306.097656 523.015625 312.792969 527.371094 326.878906 L 527.675781 327.792969 C 528.699219 328.085938 530.054688 328.421875 531.359375 328.746094 L 534.929688 329.65625 C 537.027344 330.257812 540.128906 331.042969 543.628906 331.929688 C 552.984375 334.300781 565.019531 337.355469 569.601562 339.800781 C 572.234375 341.207031 574.027344 343.988281 574.027344 347.183594 L 574.15625 402.144531 C 574.429688 405.414062 572.757812 408.683594 569.664062 410.289062 C 565.28125 412.570312 549.132812 416.714844 537.296875 419.746094 C 533.410156 420.742188 530.003906 421.617188 527.703125 422.246094 C 527.378906 422.335938 527.222656 422.859375 526.722656 424.550781 C 525.761719 427.800781 524.410156 432.378906 521.535156 438.871094 C 519.832031 442.722656 518.257812 445.722656 517.09375 447.9375 C 516.332031 449.394531 515.90625 448.902344 515.917969 449.53125 C 515.921875 450.121094 516.550781 450.054688 517.910156 452.394531 C 518.804688 453.933594 519.917969 455.855469 521.597656 458.917969 C 522.402344 460.394531 524.171875 463.320312 526.125 466.550781 C 530.621094 473.992188 536.054688 482.984375 537.570312 488.3125 C 538.359375 491.152344 537.640625 494.324219 535.40625 496.550781 L 496.660156 535.246094 C 494.589844 537.488281 491.367188 538.519531 488.230469 537.636719 C 483.152344 536.207031 474.382812 530.898438 468.648438 527.425781 L 466.015625 525.84375 C 463.195312 524.15625 459.882812 522.109375 457.164062 520.429688 C 452.484375 517.539062 450.230469 516.140625 449.6875 516.085938 C 449.519531 516.070312 448.652344 516.722656 446.335938 517.90625 C 443.917969 519.144531 440.808594 520.730469 436.832031 522.472656 C 434.828125 523.347656 432.359375 524.113281 429.746094 524.914062 C 426.65625 525.863281 423.269531 526.910156 422.070312 527.546875 C 421.253906 529.492188 419.417969 537.175781 417.535156 545.070312 L 417.503906 545.0625 C 415.148438 554.929688 412.722656 565.078125 410.070312 569.824219 C 408.632812 572.386719 405.898438 574.121094 402.753906 574.121094 L 347.355469 574.253906 C 344.296875 574.347656 341.296875 572.757812 339.738281 569.890625 C 337.195312 565.234375 334.765625 555.140625 332.398438 545.300781 C 330.476562 537.28125 328.589844 529.453125 327.800781 527.589844 C 326.640625 526.953125 323.195312 525.894531 320.144531 524.957031 C 317.976562 524.285156 315.945312 523.660156 314.25 522.980469 L 313.722656 522.777344 C 308.738281 520.660156 305.351562 518.910156 302.832031 517.605469 C 300.933594 516.625 300.742188 516.019531 300.335938 516.011719 C 300.085938 516.035156 298.191406 517.203125 294.269531 519.628906 C 291.519531 521.332031 288.042969 523.480469 284.023438 525.828125 L 280.953125 527.652344 C 275.160156 531.09375 266.414062 536.308594 261.617188 537.683594 C 258.78125 538.472656 255.605469 537.753906 253.382812 535.515625 L 214.429688 496.472656 C 212.386719 494.410156 211.472656 491.335938 212.300781 488.335938 C 213.777344 482.984375 219.925781 472.703125 224.441406 465.148438 L 227.585938 459.859375 L 227.863281 459.3125 C 229.101562 457.117188 230.5 454.777344 231.648438 452.855469 C 233.136719 450.359375 233.824219 450.046875 233.835938 449.605469 L 233.816406 449.4375 C 233.277344 448.867188 232.8125 448.210938 232.4375 447.480469 C 231.402344 445.445312 230.035156 442.773438 228.308594 438.871094 C 226.089844 433.867188 224.808594 429.777344 223.785156 426.507812 C 222.949219 423.839844 223.625 422.703125 223.046875 422.503906 C 220.359375 421.570312 214.472656 420.117188 208.054688 418.535156 C 197.375 415.902344 185.292969 412.925781 180.242188 410.226562 C 177.609375 408.816406 175.816406 406.039062 175.816406 402.84375 L 175.683594 347.882812 C 175.410156 344.613281 177.082031 341.34375 180.175781 339.738281 C 184.457031 337.511719 201.101562 333.207031 213.046875 330.121094 L 222.226562 327.726562 C 222.472656 327.660156 222.621094 327.15625 223.101562 325.527344 C 224.058594 322.28125 225.414062 317.691406 228.308594 311.160156 C 229.839844 307.703125 231.347656 304.761719 232.488281 302.535156 C 233.34375 300.867188 233.8125 300.992188 233.804688 300.488281 C 233.796875 299.96875 233.144531 299.847656 231.742188 297.402344 L 231.765625 297.386719 C 230.730469 295.582031 229.480469 293.40625 228.476562 291.570312 L 228.214844 291.121094 C 225.707031 286.496094 223.984375 283.476562 222.304688 280.53125 Z M 299.316406 234.140625 L 299.082031 234.191406 C 298.488281 234.296875 299.28125 234.042969 299.785156 233.753906 L 299.664062 233.96875 Z M 299.316406 234.140625 " fill-opacity="1" fill-rule="evenodd"/></g></svg>