<svg xmlns="http://www.w3.org/2000/svg" xmlns:xlink="http://www.w3.org/1999/xlink" width="1000" zoomAndPan="magnify" viewBox="0 0 750 749.999995" height="1000" preserveAspectRatio="xMidYMid meet" version="1.0"><defs><clipPath id="800181d7b7"><path d="M 102.75 75 L 647.25 75 L 647.25 675 L 102.75 675 Z M 102.75 75 " clip-rule="nonzero"/></clipPath></defs><g clip-path="url(#800181d7b7)"><path fill="#ffffff" d="M 405.027344 398.699219 L 278.996094 398.699219 C 273.652344 398.699219 269.320312 394.367188 269.320312 389.023438 L 269.320312 296.320312 C 269.320312 253.386719 304.125 218.582031 347.058594 218.582031 L 431.96875 218.582031 C 447.03125 218.582031 461.09375 222.871094 473.003906 230.285156 C 477.535156 233.109375 478.925781 239.078125 476.101562 243.613281 C 473.28125 248.144531 467.308594 249.53125 462.777344 246.710938 C 453.835938 241.144531 443.277344 237.929688 431.96875 237.929688 L 347.058594 237.929688 C 314.808594 237.929688 288.667969 264.074219 288.667969 296.320312 C 288.667969 296.320312 288.667969 379.351562 288.667969 379.351562 L 322.574219 379.351562 L 322.574219 317.332031 C 322.574219 311.992188 326.90625 307.65625 332.246094 307.65625 C 337.585938 307.65625 341.921875 311.992188 341.921875 317.332031 L 341.921875 379.351562 L 405.027344 379.351562 C 410.367188 379.351562 414.703125 383.683594 414.703125 389.023438 C 414.703125 394.363281 410.367188 398.699219 405.027344 398.699219 Z M 389.511719 75.121094 C 426.457031 75.121094 456.453125 105.113281 456.453125 142.058594 C 456.453125 179.003906 426.457031 209 389.511719 209 C 352.566406 209 322.574219 179.003906 322.574219 142.058594 C 322.574219 105.113281 352.566406 75.121094 389.511719 75.121094 Z M 389.511719 94.46875 C 363.246094 94.46875 341.921875 115.792969 341.921875 142.058594 C 341.921875 168.328125 363.246094 189.652344 389.511719 189.652344 C 415.78125 189.652344 437.105469 168.328125 437.105469 142.058594 C 437.105469 115.792969 415.78125 94.46875 389.511719 94.46875 Z M 471.273438 265.480469 C 474.351562 256.015625 483.171875 249.605469 493.125 249.605469 C 503.078125 249.605469 511.898438 256.015625 514.972656 265.480469 L 528.121094 305.945312 L 570.667969 305.945312 C 580.621094 305.945312 589.441406 312.351562 592.519531 321.820312 C 595.59375 331.285156 592.222656 341.65625 584.171875 347.503906 L 549.75 372.515625 L 562.898438 412.976562 C 565.976562 422.441406 562.605469 432.8125 554.554688 438.664062 C 546.5 444.515625 535.597656 444.515625 527.542969 438.664062 L 493.125 413.65625 L 458.703125 438.664062 C 450.652344 444.515625 439.746094 444.515625 431.695312 438.664062 C 423.644531 432.8125 420.273438 422.441406 423.351562 412.976562 L 436.496094 372.515625 L 402.078125 347.503906 C 394.023438 341.65625 390.652344 331.285156 393.730469 321.820312 C 396.804688 312.351562 405.628906 305.945312 415.582031 305.945312 L 458.125 305.945312 Z M 489.675781 271.457031 L 474.355469 318.605469 C 473.058594 322.59375 469.347656 325.292969 465.15625 325.292969 L 415.582031 325.292969 C 414.007812 325.292969 412.617188 326.304688 412.128906 327.796875 C 411.644531 329.292969 412.175781 330.929688 413.449219 331.855469 L 453.554688 360.992188 C 456.945312 363.457031 458.363281 367.820312 457.070312 371.808594 L 441.75 418.957031 C 441.265625 420.449219 441.796875 422.085938 443.066406 423.011719 C 444.339844 423.933594 446.0625 423.933594 447.332031 423.011719 L 487.4375 393.871094 C 490.828125 391.410156 495.421875 391.410156 498.8125 393.871094 L 538.917969 423.011719 C 540.1875 423.933594 541.910156 423.933594 543.179688 423.011719 C 544.453125 422.085938 544.984375 420.449219 544.5 418.957031 L 529.179688 371.808594 C 527.882812 367.820312 529.304688 363.457031 532.695312 360.992188 L 572.800781 331.855469 C 574.070312 330.929688 574.605469 329.292969 574.117188 327.796875 C 573.632812 326.304688 572.238281 325.292969 570.667969 325.292969 L 521.09375 325.292969 C 516.902344 325.292969 513.1875 322.59375 511.894531 318.605469 L 496.574219 271.457031 C 496.089844 269.964844 494.695312 268.953125 493.125 268.953125 C 491.554688 268.953125 490.160156 269.964844 489.675781 271.457031 Z M 249.042969 609.089844 L 256.976562 623.109375 C 256.980469 623.117188 256.984375 623.125 256.988281 623.132812 C 263.515625 634.746094 259.375 649.5625 247.832031 656.082031 L 220.167969 671.761719 C 220.160156 671.765625 220.148438 671.769531 220.140625 671.777344 C 208.527344 678.304688 193.710938 674.164062 187.1875 662.613281 L 105.839844 518.875 C 99.253906 507.253906 103.390625 492.421875 114.953125 485.894531 L 142.648438 470.214844 L 142.65625 470.210938 C 154.210938 463.683594 169.03125 467.785156 175.609375 479.339844 L 175.625 479.363281 L 182.082031 490.773438 L 254.636719 448.765625 C 276.382812 436.1875 298.601562 427.972656 322.484375 435.726562 C 345.777344 443.28125 383.808594 459.5625 422.617188 466.574219 C 423.042969 466.652344 423.464844 466.757812 423.878906 466.890625 C 443.394531 473.210938 455.265625 492.941406 449.933594 512.757812 C 449.082031 515.929688 447.945312 518.871094 446.535156 521.554688 C 450.878906 520.347656 455.128906 518.558594 459.304688 516.125 L 557.945312 458.675781 C 593.511719 437.953125 617.21875 440.167969 630.640625 449.171875 C 642.171875 456.910156 647.511719 470.117188 647.164062 483.082031 C 646.816406 496.175781 640.582031 508.691406 630.3125 515.015625 L 451.328125 625.214844 C 432.53125 636.816406 411.941406 639.535156 390.613281 633.847656 L 390.601562 633.84375 C 390.601562 633.84375 264.636719 600.085938 264.636719 600.085938 Z M 158.796875 488.910156 L 158.789062 488.898438 C 157.460938 486.585938 154.492188 485.746094 152.171875 487.054688 L 124.484375 502.730469 L 124.472656 502.734375 C 122.164062 504.039062 121.355469 507.011719 122.671875 509.332031 L 122.675781 509.339844 L 204.027344 653.085938 L 204.03125 653.09375 C 205.339844 655.414062 208.320312 656.222656 210.648438 654.917969 L 238.292969 639.25 L 238.304688 639.242188 C 240.625 637.933594 241.433594 634.953125 240.125 632.621094 Z M 148.304688 504.09375 C 154.582031 503.15625 160.414062 507.492188 161.347656 513.769531 C 162.242188 520.050781 157.910156 525.917969 151.628906 526.8125 C 145.351562 527.75 139.523438 523.375 138.585938 517.097656 C 137.691406 510.820312 142.027344 504.988281 148.304688 504.09375 Z M 191.609375 507.609375 L 239.511719 592.253906 L 258.433594 581.328125 C 260.65625 580.042969 263.296875 579.695312 265.777344 580.359375 L 395.601562 615.15625 C 411.605469 619.421875 427.0625 617.453125 441.167969 608.75 L 441.175781 608.746094 L 620.167969 498.539062 C 624.832031 495.667969 627.261719 489.890625 627.75 483.976562 C 628.5 474.855469 624.222656 464.785156 612.941406 462.421875 C 602.476562 460.230469 587.742188 463.707031 567.683594 475.394531 L 469.046875 532.839844 C 453.257812 542.042969 436.707031 544.585938 418.671875 541.714844 C 418.660156 541.710938 418.648438 541.710938 418.636719 541.707031 L 406.398438 539.714844 C 406.265625 539.695312 406.136719 539.671875 406.003906 539.644531 L 405.992188 539.640625 C 383.734375 535.070312 363.089844 528.347656 340.183594 522.191406 C 335.027344 520.808594 331.96875 515.496094 333.351562 510.339844 C 334.738281 505.183594 340.050781 502.121094 345.207031 503.507812 C 367.585938 509.523438 387.761719 516.117188 409.488281 520.609375 C 420.582031 521.839844 428.699219 517.242188 431.25 507.738281 L 431.25 507.734375 C 433.839844 498.121094 427.816406 488.792969 418.472656 485.484375 C 378.941406 478.230469 340.246094 461.824219 316.515625 454.132812 L 316.511719 454.128906 C 298.042969 448.132812 281.136719 455.789062 264.324219 465.511719 Z M 191.609375 507.609375 " fill-opacity="1" fill-rule="evenodd"/></g></svg>