<svg xmlns="http://www.w3.org/2000/svg" xmlns:xlink="http://www.w3.org/1999/xlink" width="1000" zoomAndPan="magnify" viewBox="0 0 750 749.999995" height="1000" preserveAspectRatio="xMidYMid meet" version="1.0"><path fill="#ffffff" d="M 612.574219 150.460938 C 612.523438 150.75 612.460938 151.046875 612.390625 151.332031 Z M 246.644531 594.671875 C 246.804688 596.308594 246.429688 598.003906 245.460938 599.484375 Z M 555.292969 364.707031 Z M 349.324219 312.519531 C 344.664062 313.519531 340.496094 315.855469 337.25 319.101562 L 336.894531 319.433594 C 332.707031 323.785156 330.125 329.738281 330.125 336.316406 C 330.125 343.054688 332.84375 349.152344 337.234375 353.550781 L 337.25 353.535156 C 341.648438 357.9375 347.738281 360.660156 354.460938 360.660156 C 361.210938 360.660156 367.296875 357.949219 371.679688 353.5625 C 374.925781 350.3125 377.261719 346.140625 378.261719 341.460938 L 375.398438 344.324219 L 375.367188 344.324219 C 371.378906 348.308594 366.144531 350.308594 360.929688 350.308594 C 355.695312 350.308594 350.449219 348.3125 346.460938 344.324219 C 342.472656 340.335938 340.476562 335.089844 340.476562 329.855469 C 340.476562 324.636719 342.476562 319.40625 346.460938 315.414062 L 346.460938 315.382812 Z M 392.667969 327.054688 L 421.867188 297.855469 C 424.445312 302.367188 426.585938 307.160156 428.226562 312.171875 C 430.699219 319.742188 432.042969 327.859375 432.042969 336.316406 C 432.042969 357.734375 423.355469 377.132812 409.316406 391.171875 C 395.277344 405.210938 375.878906 413.898438 354.464844 413.898438 C 333.046875 413.898438 313.648438 405.210938 299.613281 391.171875 C 285.574219 377.136719 276.886719 357.734375 276.886719 336.316406 C 276.886719 314.902344 285.574219 295.503906 299.609375 281.464844 C 313.648438 267.425781 333.046875 258.738281 354.464844 258.738281 C 362.921875 258.738281 371.042969 260.082031 378.609375 262.554688 C 383.625 264.195312 388.417969 266.335938 392.929688 268.917969 L 363.730469 298.113281 C 363.039062 297.949219 362.332031 297.800781 361.617188 297.667969 C 359.207031 297.226562 356.8125 296.996094 354.460938 296.996094 C 343.601562 296.996094 333.769531 301.398438 326.65625 308.511719 C 326.507812 308.660156 326.363281 308.820312 326.226562 308.976562 C 319.363281 316.070312 315.140625 325.710938 315.140625 336.316406 C 315.140625 347.160156 319.542969 356.984375 326.65625 364.097656 L 326.671875 364.113281 L 326.65625 364.128906 C 333.769531 371.242188 343.601562 375.644531 354.460938 375.644531 C 365.304688 375.644531 375.140625 371.230469 382.269531 364.097656 C 389.382812 356.980469 393.785156 347.15625 393.785156 336.316406 C 393.785156 333.964844 393.554688 331.570312 393.113281 329.167969 C 392.980469 328.449219 392.832031 327.746094 392.667969 327.054688 Z M 432.753906 286.96875 L 468.144531 251.578125 C 476.320312 262.527344 482.960938 274.71875 487.726562 287.8125 C 493.226562 302.90625 496.226562 319.242188 496.226562 336.316406 C 496.226562 375.445312 480.347656 410.890625 454.691406 436.546875 C 429.039062 462.203125 393.59375 478.082031 354.464844 478.082031 C 315.335938 478.082031 279.894531 462.207031 254.234375 436.546875 C 228.582031 410.890625 212.703125 375.445312 212.703125 336.316406 C 212.703125 297.1875 228.582031 261.742188 254.234375 236.085938 C 279.886719 210.433594 315.335938 194.554688 354.464844 194.554688 C 371.539062 194.554688 387.875 197.558594 402.96875 203.054688 C 416.066406 207.824219 428.257812 214.460938 439.207031 222.636719 L 403.816406 258.027344 C 397.441406 254 390.539062 250.726562 383.234375 248.335938 C 374.148438 245.367188 364.476562 243.757812 354.464844 243.757812 C 328.914062 243.757812 305.769531 254.121094 289.015625 270.875 C 272.265625 287.625 261.902344 310.765625 261.902344 336.316406 C 261.902344 361.871094 272.265625 385.015625 289.019531 401.765625 C 305.769531 418.519531 328.914062 428.882812 354.464844 428.882812 C 380.015625 428.882812 403.15625 418.515625 419.90625 401.765625 C 436.660156 385.011719 447.023438 361.871094 447.023438 336.316406 C 447.023438 326.308594 445.414062 316.632812 442.445312 307.546875 C 440.054688 300.246094 436.78125 293.339844 432.753906 286.96875 Z M 478.789062 240.933594 L 503.597656 216.125 L 549.683594 212.179688 C 551.46875 212.027344 553.148438 211.585938 554.738281 210.851562 C 556.355469 210.101562 557.78125 209.101562 559.039062 207.839844 L 608.40625 158.472656 C 610.429688 156.449219 611.789062 154 612.421875 151.339844 C 612.488281 151.046875 612.539062 150.75 612.574219 150.460938 C 612.996094 148.074219 612.835938 145.605469 612.050781 143.210938 C 611.15625 140.476562 609.582031 138.160156 607.503906 136.402344 C 605.449219 134.660156 602.914062 133.5 600.074219 133.058594 L 600.042969 133.054688 L 600.046875 133.027344 L 561.039062 127.054688 L 555.058594 88.042969 C 554.625 85.21875 553.449219 82.667969 551.683594 80.585938 C 549.925781 78.507812 547.605469 76.933594 544.878906 76.039062 C 542.160156 75.148438 539.371094 75.042969 536.75 75.667969 C 536.433594 75.742188 536.128906 75.839844 535.832031 75.949219 C 533.507812 76.660156 531.378906 77.917969 529.613281 79.683594 L 480.25 129.046875 C 478.980469 130.316406 477.972656 131.738281 477.238281 133.320312 C 477.152344 133.503906 477.078125 133.6875 477.007812 133.871094 C 476.40625 135.304688 476.039062 136.8125 475.910156 138.402344 L 471.457031 190.386719 L 449.851562 211.992188 C 437.277344 202.324219 423.207031 194.523438 408.0625 189.007812 C 391.300781 182.90625 373.242188 179.574219 354.464844 179.574219 C 311.199219 179.574219 272.011719 197.128906 243.640625 225.496094 C 215.273438 253.863281 197.71875 293.050781 197.71875 336.316406 C 197.71875 379.582031 215.273438 418.769531 243.640625 447.140625 C 272.011719 475.507812 311.199219 493.0625 354.464844 493.0625 C 397.730469 493.0625 436.917969 475.507812 465.285156 447.140625 C 493.652344 418.769531 511.207031 379.582031 511.207031 336.316406 C 511.207031 317.539062 507.875 299.480469 501.773438 282.71875 C 496.257812 267.578125 488.457031 253.511719 478.789062 240.933594 Z M 163.308594 552.253906 C 163.574219 552.523438 163.863281 552.777344 164.171875 553.007812 C 172.820312 559.464844 181.234375 565.515625 192.320312 573.125 C 202.820312 580.335938 215.296875 588.65625 232.171875 599.730469 L 233.53125 611.347656 C 230.738281 612.710938 228.320312 614.691406 226.425781 617.085938 C 223.167969 621.203125 221.476562 626.546875 222.121094 632.113281 L 224.886719 655.761719 C 225.535156 661.351562 228.421875 666.179688 232.546875 669.4375 C 236.664062 672.691406 242.007812 674.390625 247.578125 673.738281 L 331.972656 663.878906 C 337.566406 663.230469 342.390625 660.34375 345.648438 656.21875 C 348.90625 652.101562 350.605469 646.757812 349.953125 641.1875 L 347.191406 617.542969 C 346.539062 611.949219 343.648438 607.121094 339.527344 603.863281 C 337.132812 601.96875 334.328125 600.605469 331.300781 599.921875 L 327.140625 564.300781 L 327.121094 564.152344 L 327.0625 563.636719 L 327 563.125 L 326.902344 562.273438 C 326.875 562.027344 326.832031 561.78125 326.78125 561.539062 C 325.386719 552.09375 322.289062 543.40625 317.496094 535.484375 C 312.65625 527.484375 306.101562 520.28125 297.835938 513.875 L 297.542969 513.632812 L 242.082031 469.902344 C 236.882812 465.804688 230.480469 464.191406 224.371094 464.902344 C 218.511719 465.589844 212.886719 468.417969 208.800781 473.238281 C 208.394531 473.648438 208.046875 474.089844 207.753906 474.558594 C 206.007812 476.929688 204.765625 479.519531 203.996094 482.199219 L 203.644531 481.925781 L 189.613281 361.285156 C 188.261719 349.726562 180.546875 343.222656 171.421875 341.074219 C 168.164062 340.308594 164.726562 340.136719 161.378906 340.523438 C 158.046875 340.90625 154.738281 341.859375 151.734375 343.339844 C 143.496094 347.40625 137.59375 355.199219 138.730469 366.074219 L 137.527344 493.238281 L 137.523438 493.300781 C 137.144531 504.699219 139.152344 515.367188 143.546875 525.289062 C 147.863281 535.046875 154.453125 544.042969 163.308594 552.253906 Z M 152.453125 493.40625 L 152.449219 493.769531 L 152.449219 493.824219 L 152.421875 496.824219 C 152.53125 504.769531 154.136719 512.253906 157.238281 519.261719 C 160.707031 527.105469 166.09375 534.421875 173.386719 541.203125 C 182.082031 547.691406 190.316406 553.617188 200.746094 560.777344 C 211.269531 568.003906 224.527344 576.824219 243.292969 589.125 C 245.269531 590.417969 246.433594 592.488281 246.644531 594.671875 L 248.257812 608.46875 L 316.308594 600.519531 L 312.035156 563.972656 L 312.011719 563.710938 C 310.90625 556.296875 308.464844 549.460938 304.679688 543.210938 C 300.789062 536.78125 295.457031 530.9375 288.695312 525.691406 C 288.558594 525.597656 288.425781 525.5 288.296875 525.398438 L 287.761719 524.972656 C 287.1875 524.542969 286.605469 524.117188 286.011719 523.695312 C 285.597656 523.394531 285.21875 523.066406 284.882812 522.707031 L 232.835938 481.667969 C 230.855469 480.109375 228.410156 479.496094 226.066406 479.769531 C 223.734375 480.039062 221.507812 481.1875 219.96875 483.132812 L 219.953125 483.152344 C 218.417969 485.105469 217.820312 487.542969 218.097656 489.898438 C 218.34375 492.035156 219.328125 494.082031 220.992188 495.597656 L 221.46875 495.972656 C 221.628906 496.097656 221.78125 496.230469 221.925781 496.367188 L 250.515625 518.976562 C 253.746094 521.527344 254.296875 526.21875 251.746094 529.449219 C 249.191406 532.683594 244.503906 533.234375 241.269531 530.679688 L 212.769531 508.140625 C 212.492188 507.960938 212.222656 507.757812 211.964844 507.535156 L 211.925781 507.503906 L 211.910156 507.488281 L 191.953125 491.757812 C 190.433594 490.566406 189.378906 488.792969 189.140625 486.726562 L 174.75 362.984375 C 174.261719 358.808594 171.410156 356.441406 168.03125 355.648438 C 166.449219 355.273438 164.75 355.195312 163.078125 355.386719 C 161.390625 355.582031 159.765625 356.042969 158.347656 356.738281 C 155.351562 358.21875 153.195312 360.964844 153.632812 364.707031 L 153.613281 364.707031 C 153.648438 365.003906 153.664062 365.308594 153.664062 365.613281 Z M 245.878906 658.875 C 244.34375 659.054688 242.890625 658.601562 241.792969 657.734375 C 240.695312 656.867188 239.925781 655.570312 239.75 654.0625 L 236.988281 630.414062 C 236.808594 628.882812 237.257812 627.429688 238.128906 626.332031 C 239 625.230469 240.292969 624.464844 241.800781 624.289062 L 325.414062 614.519531 L 325.457031 614.515625 L 325.644531 614.492188 L 326.195312 614.429688 C 327.730469 614.25 329.183594 614.699219 330.28125 615.566406 C 331.378906 616.433594 332.152344 617.730469 332.328125 619.242188 L 335.085938 642.886719 C 335.265625 644.421875 334.816406 645.875 333.945312 646.972656 C 333.082031 648.070312 331.785156 648.839844 330.273438 649.015625 Z M 520.035156 199.6875 L 575.332031 144.390625 L 597.824219 147.835938 L 597.828125 147.8125 L 597.847656 147.816406 C 597.863281 147.828125 597.824219 147.804688 597.832031 147.835938 C 597.835938 147.859375 597.847656 147.859375 597.855469 147.863281 L 597.847656 147.886719 C 597.84375 147.917969 597.84375 147.851562 597.816406 147.878906 L 548.449219 197.25 L 548.445312 197.253906 Z M 557.050781 141.488281 L 364.804688 333.730469 L 364.820312 333.746094 C 363.761719 334.796875 362.347656 335.324219 360.929688 335.324219 C 359.519531 335.324219 358.109375 334.792969 357.050781 333.730469 C 355.992188 332.671875 355.460938 331.265625 355.460938 329.855469 C 355.460938 328.433594 355.988281 327.019531 357.039062 325.960938 L 357.054688 325.976562 L 483.921875 199.101562 L 484.050781 198.976562 L 548.222656 134.804688 C 548.714844 135.617188 549.277344 136.375 549.910156 137.078125 C 550.074219 137.277344 550.246094 137.46875 550.433594 137.65625 C 552.234375 139.453125 554.492188 140.785156 557.050781 141.488281 Z M 544.417969 117.425781 L 487.894531 173.953125 L 490.832031 139.640625 C 490.835938 139.640625 490.835938 139.644531 490.84375 139.640625 L 540.207031 90.273438 C 540.21875 90.261719 540.21875 90.253906 540.21875 90.246094 L 540.253906 90.257812 C 540.285156 90.265625 540.257812 90.222656 540.273438 90.242188 C 540.289062 90.261719 540.25 90.230469 540.253906 90.265625 Z M 548.472656 197.269531 C 548.492188 197.261719 548.507812 197.257812 548.480469 197.273438 C 548.460938 197.28125 548.46875 197.273438 548.472656 197.269531 Z M 392.617188 600.519531 L 460.667969 608.46875 L 462.28125 594.671875 C 462.492188 592.488281 463.65625 590.417969 465.632812 589.125 L 535.539062 541.203125 C 542.832031 534.421875 548.21875 527.105469 551.6875 519.261719 C 555.644531 510.320312 556.53125 503.066406 556.472656 493.40625 L 555.292969 364.707031 C 556.550781 353.886719 535.554688 351.136719 534.175781 362.984375 L 519.785156 486.726562 C 519.546875 488.792969 518.488281 490.566406 516.972656 491.757812 L 467.65625 530.679688 C 459.984375 536.742188 450.734375 525.039062 458.410156 518.976562 L 487 496.367188 C 497.417969 487.511719 485.070312 474.589844 476.089844 481.667969 L 424.042969 522.707031 L 422.914062 523.695312 C 409.320312 533.394531 398.9375 547.261719 396.914062 563.710938 Z M 411.089844 513.875 L 466.84375 469.902344 C 480.296875 459.296875 500.226562 465.792969 504.929688 482.199219 L 505.28125 481.925781 L 519.3125 361.285156 C 521.109375 345.875 534.554688 339.03125 547.546875 340.523438 C 560.300781 341.984375 570.929688 350.507812 570.195312 366.074219 L 571.398438 493.238281 C 571.90625 516.925781 563.234375 535.914062 545.617188 552.253906 L 476.753906 599.730469 L 475.394531 611.347656 C 483.074219 615.097656 487.816406 623.40625 486.804688 632.113281 L 484.039062 655.761719 C 482.734375 666.9375 472.503906 675.042969 461.347656 673.738281 L 376.953125 663.878906 C 365.773438 662.578125 357.667969 652.34375 358.972656 641.1875 L 361.734375 617.542969 C 362.753906 608.804688 369.273438 601.808594 377.625 599.921875 L 381.785156 564.300781 C 384.242188 542.902344 394.191406 527.390625 411.089844 513.875 Z M 467.125 624.289062 L 383.511719 614.519531 C 379.832031 614.121094 377.011719 615.71875 376.597656 619.242188 L 373.835938 642.886719 C 373.484375 645.9375 375.613281 648.664062 378.652344 649.015625 L 463.042969 658.875 C 466.097656 659.230469 468.824219 657.097656 469.175781 654.0625 L 471.9375 630.414062 C 472.296875 627.363281 470.15625 624.640625 467.125 624.289062 Z M 467.125 624.289062 " fill-opacity="1" fill-rule="evenodd"/></svg>